<svg xmlns="http://www.w3.org/2000/svg" viewBox="0 0 174 174"><defs><style>.cls-1{fill:#cdcbca;}.cls-2{fill:#323d49;}.cls-3{fill:#71bf8c;}.cls-4{fill:#344c3b;}.cls-5{fill:#f8f9f7;}.cls-6{fill:none;}</style></defs><title>アセット 1</title><g id="レイヤー_2" data-name="レイヤー 2"><g id="レイヤー_1-2" data-name="レイヤー 1"><rect class="cls-1" x="116.54" y="35.7" width="3.76" height="6.95"/><rect class="cls-1" x="38.92" y="54.55" width="6.95" height="3.76"/><rect class="cls-1" x="38.92" y="62.13" width="6.95" height="3.76"/><rect class="cls-1" x="38.91" y="69.7" width="6.95" height="3.76"/><rect class="cls-1" x="38.9" y="77.27" width="6.95" height="3.76"/><rect class="cls-1" x="38.9" y="84.84" width="6.95" height="3.76"/><rect class="cls-1" x="38.89" y="92.41" width="6.95" height="3.76"/><rect class="cls-1" x="38.89" y="99.98" width="6.95" height="3.76"/><rect class="cls-1" x="38.88" y="107.55" width="6.95" height="3.76"/><rect class="cls-1" x="38.87" y="115.13" width="6.95" height="3.76"/><rect class="cls-1" x="130.36" y="52.75" width="6.95" height="3.76"/><rect class="cls-1" x="130.36" y="60.32" width="6.95" height="3.76"/><rect class="cls-1" x="130.35" y="67.9" width="6.95" height="3.76"/><rect class="cls-1" x="130.35" y="75.47" width="6.95" height="3.76"/><rect class="cls-1" x="130.34" y="83.04" width="6.95" height="3.76"/><rect class="cls-1" x="130.33" y="90.61" width="6.95" height="3.76"/><rect class="cls-1" x="130.33" y="98.18" width="6.95" height="3.76"/><rect class="cls-1" x="130.32" y="105.75" width="6.95" height="3.76"/><rect class="cls-1" x="130.31" y="113.32" width="6.95" height="3.76"/><rect class="cls-1" x="57.77" y="127.08" width="3.76" height="6.95"/><rect class="cls-1" x="65.34" y="127.09" width="3.76" height="6.95"/><rect class="cls-1" x="72.91" y="127.1" width="3.76" height="6.95"/><rect class="cls-1" x="80.49" y="127.1" width="3.76" height="6.95"/><rect class="cls-1" x="88.06" y="127.11" width="3.76" height="6.95"/><rect class="cls-1" x="95.63" y="127.12" width="3.76" height="6.95"/><rect class="cls-1" x="103.2" y="127.12" width="3.76" height="6.95"/><rect class="cls-1" x="110.77" y="127.13" width="3.76" height="6.95"/><rect class="cls-1" x="118.34" y="127.14" width="3.76" height="6.95"/><rect class="cls-1" x="55.97" y="35.64" width="3.76" height="6.95"/><rect class="cls-1" x="63.54" y="35.65" width="3.76" height="6.95"/><rect class="cls-1" x="71.11" y="35.66" width="3.76" height="6.95"/><rect class="cls-1" x="78.68" y="35.66" width="3.76" height="6.95"/><rect class="cls-1" x="86.26" y="35.67" width="3.76" height="6.95"/><rect class="cls-1" x="93.83" y="35.68" width="3.76" height="6.95"/><rect class="cls-1" x="101.4" y="35.68" width="3.76" height="6.95"/><rect class="cls-1" x="108.97" y="35.69" width="3.76" height="6.95"/><path class="cls-2" d="M129.21,127.53l-82.3-.07a1.54,1.54,0,0,1-1.54-1.54l.07-82.31A1.53,1.53,0,0,1,47,42.08l82.31.07a1.53,1.53,0,0,1,1.53,1.54l-.07,82.3a1.54,1.54,0,0,1-1.54,1.54"/><rect class="cls-3" x="56.01" y="52.71" width="64.18" height="64.18"/><path class="cls-4" d="M78.09,60.31c0-1,.12-2-1.36-1.71a3.42,3.42,0,0,0-2.22-2.25,1.08,1.08,0,0,1,.14-1.1,1.28,1.28,0,0,1,1.16-.12c.51.1.41.54.4.88,0,.73.37.88,1,.87s.94-.23.87-.86.28-1,1-1,.73.57.73,1.09,0,1,0,1.46c0,.67.11,1,.92,1s.91-.44.89-1.07,0-1.05,0-1.58.09-.94.78-.94,1.06.11,1,.85.3,1,1,1a11.85,11.85,0,0,1,1.46,0c.72,0,1.19-.12,1.09-1-.08-.66.3-.84.89-.82s1,0,1.57,0c.73,0,1.2.12,1.09,1-.09.67.31.82.88.82s1-.15.89-.82c-.1-.86.37-1,1.09-1,1.66,0,3.31,0,5,0,.59,0,1,.06,1,.83s-.22,1-.91.93-.9.28-.9.94.35.92,1,.86h.12c2.5.06,2.5.06,2.53-2.45,0-.58-.06-1.11.82-1.13s.91.53.9,1.18c0,1.62,0,3.23,0,4.85,0,.73-.14,1.18-1,1.09-.7-.08-.76.34-.77.9s.15,1,.82.87,1,.28.93,1a10.29,10.29,0,0,0,0,1.57c0,.65-.15,1-.87.94s-.88.28-.88.94.26.92.92.9c1.43,0,.59,1.11.84,1.69-1.75,0-1.75,0-1.75,1.76,0,2.06,0,4.12,0,6.18,0,.73-.24,1-1,1-3.08-.08-2.54.45-2.6-2.63v-.12c0-.54.19-.88.76-.8.91.11,1.11-.37,1-1.15,0-.56,0-1.13,0-1.69s-.34-.74-.85-.74-1,0-1,.73c.11,1-.4,1.17-1.22,1.09a6.12,6.12,0,0,0-1.21,0c-.75.07-1.17-.17-1.09-1s-.42-.82-1-.82-.84.32-.81.91,0,1.21,0,1.82-.24.84-.86.83-1-.13-.87-.8-.26-1-1-1-.82-.23-.77-.79c.09-.81-.3-1-1.07-1s-.78.61-.79,1.18c0,2.37,0,2.37-2.44,2.37-2.67,0-2.69,0-2.81-2.61,0-.66-.24-.94-.92-.94s-.92.26-.9.94c0,1.73,0,3.47,0,5.2,0,.52,0,1-.71,1S78,80,78,80.78s.37,1,1,.9.75.3.73.83,0,.95-.66.88c-1-.1-1.17.42-1.09,1.24,0,.48,0,1,0,1.45s-.14.91-.81.9-1.06-.09-1-.83-.32-1-1-.93c-1.45,0-2.91,0-4.36,0-1.75,0-1.75,0-1.75,1.75H66.71c-.59,0-1.12,0-1.12.82s.25,1,1,1,.85.3.82.89,0,1.21,0,1.82-.15.9-.75.81c-.93-.12-1.1.38-1,1.15,0,.56,0,1.13,0,1.7s.32.76.84.75,1,0,1-.75c-.11-1,.44-1.15,1.24-1.08.4,0,.81,0,1.21,0s1.06.12,1.08-.73-.2-1.14-1-1-.74-.39-.75-.92.19-.82.77-.81c1.21,0,2.42,0,3.63,0,.93,0,1,.49.89,1.15-.12,1.12-1.2.26-1.62.78S73.21,94,72,94h-.48c-.39,0-.65.25-.61.62.16,1.24-.61,1.26-1.49,1.2-.44,0-.88,0-1.33,0-.62,0-.71.35-.71.86s.06,1,.76.94c1.26,0,2.51,0,3.76,0,.54,0,.9-.17.83-.75-.11-.94.39-1,1.15-1,2.31,0,2.33,0,2.33,2.27,0,.77,0,1.38,1.07,1.25.58-.07.77.29.77.82s-.08,1-.76,1c-1-.1-1.13.47-1.08,1.26,0,.44,0,.89,0,1.33,0,.64-.13,1-.86.94s-.93.24-.92.92.18.94.82.88,1,.25,1,1,.41.83,1,.83.85-.3.84-.9c0-1.09,0-2.18,0-3.27,0-.86.16-1.21,1.12-1.2,2.5,0,2.5,0,2.4-2.54V100c0-.44-.24-.71-.68-.65-1.12.16-1.15-.53-1.1-1.32,0-.41,0-.81,0-1.21.07-.72-.18-1.08-.94-1s-.85-.29-.8-.88-.23-1-.91-.93-.93-.37-.91-1q0-1.64,0-3.27c0-.63.14-1,.86-1s1,.35.94,1c0,.48,0,1,0,1.45-.05.71.08,1.21,1,1.09.57-.08.86.2.78.77-.12.87.36,1,1.08,1,1.69,0,3.39,0,5.09,0,.47,0,1,0,.89.67-.12,1,.44,1.24,1.31,1.17a11.69,11.69,0,0,1,1.45,0c.61,0,.92-.22.85-.86s.12-1,.85-1,1,.3.88,1,.31.9,1,.9.9-.25.85-.87.25-1,1-1c.56,0,.77.26.8.82,0,.74-.24,1.06-1,1s-.85.36-.85,1,.28.89.89.81c.79-.1,1,.31.93,1,0,.5.14.78.68.74s1.07,0,1.07.89-.39,1-1,.91-.7.45-.71,1,.15.84.75.82,1.37,0,2.06,0c.51,0,.75-.21.75-.71,0-1.33,0-2.67,0-4,0-.45-.23-.68-.68-.62-.95.13-1.15-.34-1.13-1.2.07-2.8-.31-2.33,2.38-2.38.13,0,.25,0,.37,0,.59,0,.94-.17.87-.82s.15-1,.87-.94.83.23.85.85-.24,1-.91.89-.85.24-.85.86.09,1.06.84,1,1,.17.91.88.28.91.94.89q1.7,0,3.39,0c.67,0,1-.12,1-.92s-.43-.91-1.07-.89c-.48,0-1,0-1.45,0-.81.07-1.06-.3-1-1.07,0-1,0-2,0-3s-.24-1.31-1.22-1.26c-1.66.07-3.31,0-5,0-.73,0-1-.26-1-1,0-1.13,0-2.26,0-3.39,0-.59.14-.91.81-.91s1,.11,1,.85.21.93.91.92,1-.22.92-.91.16-.91.81-.85c1.37.14.67-1.08,1-1.59s1.72.31,1.69-1a.48.48,0,0,1,0-.12c-.07-.74.36-.85,1-.84s.78.4.77.94,0,1.13,0,1.7.17,1,.88,1,.94-.26.92-.94c0-1.13,0-2.26,0-3.39,0-.68.12-1.11.92-1,.63.07.85-.23.86-.85s-.17-1-.88-1-.95-.13-.89-.8-.07-1-.83-1-1,.3-.95,1-.34.79-.91.81-.86-.28-.83-.88,0-1.13,0-1.69-.12-1-.86-1-1-.28-1-1c0-.88,0-1.77,0-2.66.88.13,2.06-.21,1.87,1.42-.06.56.56.46.94.47s.85,0,.78-.52c-.19-1.44.74-1.33,1.65-1.29.33,0,.65,0,1,0,.66.06,1-.16.93-.87s.29-.92.94-.87a10.16,10.16,0,0,0,1.46,0c.76-.06,1.27.09,1.14,1-.07.52.2.77.71.71.78-.09,1.13.21,1,1s.36.84.92.79c.72,0,.89.33.87,1,0,.93,0,1.86,0,2.79s.07,1.72-1.26,1.59c-.57-.06-.56.48-.53.88.05.74-.34.88-1,.87s-.81-.35-.78-.93,0-1,0-1.57,0-1.1-.86-1.11-.94.37-.92,1c0,1.13,0,2.26,0,3.39,0,.75.26,1,1,1a14,14,0,0,1,1.45,0c.52,0,1.06-.1,1.08.73s-.15,1.08-.93,1c-.61-.06-.91.24-.84.86s-.26,1-1,1-.76.35-.77.9.15,1,.81.86,1,.28,1,1c0,.52,0,1,0,1.57,0,.71.18,1,1,1s.87-.36.86-1c0-1.17,0-2.34,0-3.51,0-.64.26-.84.87-.84s.91.15.9.81c0,1.82,0,3.63,0,5.45,0,.64-.29.83-.89.81-.89,0-1.78,0-2.67,0,0-.32,0-.65,0-1,.07-.73-.31-.87-.94-.87s-.83.23-.84.85c0,1.57,1.14.75,1.8.93,0,.89,0,1.78,0,2.67,0,.57.12.92.78.92s1.08,0,1-.82.18-1,1-1,.81.58.81,1.16c0,1.05,0,2.1,0,3.15,0,.81-.29,1.09-1.06,1-.4,0-.81,0-1.21,0-.84-.06-1.46.06-1.31,1.14.09.65-.41.72-.87.68-.73-.06-.87.3-.87.94s.35.84,1,.86c2.54.07,2.54.09,2.54,2.64,0,.53,0,1,0,1.58,0,.71.11,1.21,1,1.1.66-.08.86.28.82.86,0,.12,0,.25,0,.37,0,2.65.26,2.24-2.24,2.26-.78,0-1.5,0-1.33,1.11.1.65-.39.67-.87.69s-.88-.11-.83-.73-.08-1.07-.89-1.08-1,.43-1,1.14-.41.66-.88.67-.86-.14-.84-.75,0-1,.7-1,1.07-.06,1.09-.89-.43-1-1.13-1c-.47,0-.66-.21-.65-.66,0-.12,0-.24,0-.36,0-1.28-1.23-.34-1.64-.89s.36-1.51-.79-1.62c-.69-.06-1.23,0-1.14.94.07.71-.31.92-1,.87-.45,0-.89,0-1.34,0-.76,0-1.38,0-1.24,1,.09.63-.35.75-.85.69-.78-.08-1,.32-1,1s.42.85,1,.83,1,0,1.58,0,1,.08,1,.85-.26.94-.93.9a8.44,8.44,0,0,0-1.33,0c-.78.06-1.37,0-1.27-1.06.07-.71-.45-.75-1-.73s-.84-.27-.83-.88.18-1,.83-.88,1-.2,1-1-.55-.81-1.14-.82c-2.44,0-2.44,0-2.44,2.39,0,.2,0,.4,0,.6-.05,2.65.47,2.27-2.41,2.33-.8,0-1.25-.17-1.15-1.06.07-.52-.22-.73-.71-.73s-1,0-1.46,0c-.78,0-1.47,0-1.35-1.09.08-.7-.48-.7-1-.71s-.88.2-.82.77c.08.79-.23,1.12-1,1-.6-.06-.79.3-.72.83.1.78-.3,1-1,1q-1.7,0-3.39,0c-.66,0-1-.19-.92-.9s-.27-.91-.92-.9-.92.21-.84.85-.32,1-1,1c-3.06-.08-2.47.43-2.56-2.54,0-.7.16-1.11.94-1s.85-.34.85-1-.3-.86-.89-.8h-.24c-2.48,0-2.81-.46-2.39-3,.09-.56.41-.64.84-.6.68.06.91-.21.92-.9s-.26-1-.93-.89-.82-.39-.84-1c-.07-2.59-.08-2.59-2.75-2.59-.44,0-.89,0-1.33,0-.76,0-1.39,0-1.25-1,.07-.51-.23-.71-.74-.7-.68,0-1.37,0-2.06,0s-.86.22-.78.78c.11.88-.37,1-1.09,1-1,0-2.1,0-3.14,0-.76,0-1.09-.18-1.08-1,0-2.87,0-5.73,0-8.6,0-.71.19-1.08.95-1s.87-.26.84-.86a11.69,11.69,0,0,1,0-1.45c0-.8-.08-1.35-1.09-1.24-.72.08-.69-.48-.71-1s.25-.8.8-.8,1,.07.94.77c-.1,1,.49,1.08,1.28,1.07,2.72-.07,2.27.31,2.29-2.33,0-3,0-3-3-3-2.65,0-2.26.41-2.32-2.3,0-.78,0-1.39,1.07-1.25.53.07.75-.24.71-.72-.07-.8.27-1,1.05-1,2.48,0,2.48,0,2.48-2.59v-.24c0-2.74.09-2.8,2.85-2.5.52.06.74.27.7.75-.06.69.14,1,.93,1s.93-.31.86-1,.3-.84.88-.81a11.75,11.75,0,0,0,1.57,0c.73-.06,1.2.12,1.1,1s.34.82.89.77.89.21.85.84,0,1.22,0,1.82-.21.93-.9.93-.87-.3-.82-.89a1.92,1.92,0,0,0,0-.24c0-2.7-.18-2.8-2.86-2.5-.6.07-.74.34-.74.86s0,1,.72,1,1.06.08,1,.9-.46.92-1.09.88-.68.38-.68.87,0,.94.68.87c.88-.11,1.15.31,1.08,1.11a.59.59,0,0,0,.66.69c.76,0,1.53,0,2.3,0,.56,0,.66-.36.61-.81-.08-.73.22-1.07,1-1s.85-.28.82-.86,0-.89,0-1.34c0-.81,0-1.47,1.11-1.34.5,0,.72-.26.71-.75s0-1.22,0-1.82-.06-1,.71-1,1.12.12,1,.92.23.83.84.84,1-.13,1-.86.24-1,.92-.89a13.77,13.77,0,0,0,1.7,0c.66,0,1,.19.91.89s.31.84.94.86.83-.38.83-1c0-2.26,0-4.52,0-6.78,0-.84-.23-1.2-1.09-1.11-.44.05-.89,0-1.33,0-.71,0-1.2-.1-1.11-1s-.35-.87-1-.87-.81.29-.85.89c-.06.86.42,2-.27,2.54s-1.63.14-2.47.15c-.59,0-.78.27-.76.81s0,.9,0,1.34c.08.87,0,1.52-1.18,1.41-.62-.06-.68.45-.65.92s-.17.88-.82.88-1-.21-.92-.91-.23-1-.9-.92-.85-.2-.85-.83.25-1,.92-.91.87-.23.83-.85a11.69,11.69,0,0,1,0-1.45c.06-.78,0-1.38-1-1.25-.5.06-.71-.25-.69-.75s0-1.21,0-1.82.08-1,.84-1,.92.27.88.93,0,1.29,0,1.94.27.72.75.71,1,.1,1-.42c-.16-1.64,1-1.36,1.95-1.51,0,.39,0,.78-.08,1.18,0,.68.39.76.92.76s.78-.12.85-.72C80,59.9,78.79,60.51,78.09,60.31Zm14,39a5.89,5.89,0,0,1-.84,0c-.83-.07-.87.44-.88,1.07,0,.79.5.86,1,.77,1.35-.22.59-1.2.64-1.89l1.2.08c.64,0,.7-.38.69-.86s0-.83-.65-.91C91.75,97.42,92.32,98.62,92.14,99.35ZM80.69,111.83c.67.08,1-.24.9-.91s.14-1,.81-.89,1.06-.22,1-1,.32-.8.89-.79c1.13,0,2.26,0,3.39,0,.58,0,1,0,1.06-.8s-.17-1.1-.94-1c-.58.05-1-.13-.9-.8.11-.87-.38-1-1.09-1a9.84,9.84,0,0,1-1.33,0c-.71,0-1.21.08-1.12,1,.06.65-.31.82-.9.82s-.91-.23-.85-.85c.07-.79-.35-1-1-.93s-.79.51-.77,1.06,0,1,0,1.58-.15,1-.86.94-.91.24-.9.91.16.94.83.85,1,.29.93,1S80.09,111.88,80.69,111.83ZM99.31,68.3c.12-.63-.23-.9-.89-.85s-1-.24-.9-.92-.33-.86-1-.86-.83.33-.8.91,0,1.22,0,1.82-.22.86-.84.87-1-.23-.94-.9,0-1.14,0-1.7c.09-1-.48-1.07-1.21-1-1.09.15-.27,1.24-.79,1.64s-1.63-.33-1.57,1v.12c.06.63-.22.92-.84.85-.81-.1-.92.34-.93,1,0,.83.54.75,1.06.75,1.7,0,3.4,0,5.09,0,.64,0,1,.17,1,.88s.31,1,1,.94.77-.51.76-1.06,0-.89,0-1.33c-.05-.74.06-1.29,1-1.16C99.21,69.37,99.36,69,99.31,68.3ZM68.38,81.66c.61.14.84-.2.78-.81s.17-1,.88-.92.88-.29.89-.93-.31-.87-.94-.9c-2.5-.11-2.51-.12-2.57-2.49,0-.56,0-1-.8-1s-1.1.12-1,.91-.35.86-1,.84c-1.13,0-2.26,0-3.38,0-.62,0-1,.11-1,.84s.23,1,1,1c.57,0,1.13,0,1.69,0s1,.1.89.78c-.11.85.36,1,1.09,1,.48,0,1,0,1.45,0,.65,0,1.13.09,1,.9S67.67,81.77,68.38,81.66ZM88.67,63.74c0,1,0,1.73,0,2.5s-.1,1.29.93,1.27.85-.61.86-1.22c0-2.31,0-2.33,2.37-2.32.77,0,1.27-.11,1.17-1,0-.49.18-.79.71-.73,1,.12,1.14-.44,1.08-1.25,0-.56,0-1.13,0-1.7s-.23-.68-.68-.63S94,58.41,94,59c.07,1.46-.81,1.32-1.77,1.33-1.12,0-2.54-.49-3.29.2S88.84,62.79,88.67,63.74Zm19.27,28.58h.84c.55,0,1.15.14,1.17-.77s-.26-1.1-1-1-.71-.55-.72-1.07c-.05-2.41-.05-2.43-2.49-2.46-.67,0-1.12-.09-1-.9s-.32-.86-1-.87-.93.32-.87,1-.15.87-.74.8c-.84-.11-1,.31-1,1.06s.56.73,1.07.73,1,0,1.58,0,.94.19.88.83.26,1,1,1c.32,0,.79,0,.74.4C106.19,92.51,107.19,92.39,107.94,92.32Zm-5.12,9.6c0,2.8,0,2.8,2.76,2.8,2.6,0,2.6,0,2.6-2.59,0-2.76,0-2.76-2.81-2.76C102.82,99.37,102.82,99.37,102.82,101.92Zm10.67,6.47c0-1,0-1.93,0-2.9,0-.57-.23-.81-.79-.8s-1,0-1,.71c.11,1-.49,1.12-1.26,1.07-.45,0-.89,0-1.33,0-.71,0-1,.19-1,1s.32.87,1,.89c2.53.09,2.55.11,2.62,2.57,0,.62.14,1,.86,1s1-.35.92-1S113.49,109.2,113.49,108.39Zm-19.5.75c0-.52,0-1,0-1.57.08-.82-.24-1.14-1.09-1.12-3,.08-2.41-.34-2.48,2.49a1.92,1.92,0,0,1,0,.24c-.06.6.17.92.82.85s1,.14.93.86.3,1,1,1,.84-.44.82-1S94,109.7,94,109.14ZM63.83,89.73c0-.6,0-1.21,0-1.81.11-1.14-1.12-1.17-1.25-.9-.49,1.1-1.39,1.57-2.21,2.27-.44.37-.09,1.68-.07,2.56,0,.33.26.42.58.48,2.56.44,2.94.12,2.94-2.48ZM90.45,103.8c0-2.88,0-2.88-2.8-2.61a.48.48,0,0,1-.12,0c-.63,0-.68.41-.68.9s.08,1,.7.86c1.08-.15,1.19.47,1.13,1.3,0,.4,0,.8,0,1.2,0,.64.06,1.08.88,1.07s1-.36.91-1S90.45,104.36,90.45,103.8ZM60.27,95.72c0,.41,0,.73,0,1,0,.57.15.91.82.89s1.1,0,1-.8.35-1,1.07-1c.33,0,.67-.09.65-.52s.24-1.06-.25-1.2a5,5,0,0,0-3,0C60,94.4,60.39,95.25,60.27,95.72Zm51.3,3.67c.46,0,.83,0,1.19,0,.6,0,.76-.27.74-.81s0-1-.73-.94-1.11-.25-1-1c0-.41-.11-.73-.58-.74s-1-.19-1.11.23a4.83,4.83,0,0,0,0,3C110.24,99.74,111.11,99.26,111.57,99.39ZM97.5,62.17c0,.4,0,.8,0,1.2s.32.61.73.58,1,.17,1-.37a19.5,19.5,0,0,0,0-2.86c0-.26-.3-.32-.55-.37C97.68,60.18,97.49,60.45,97.5,62.17Zm3.61,3.71V64.55c0-.56-.39-.64-.83-.62s-.91-.14-1,.46c0,.88,0,1.77,0,2.65,0,.36.32.41.62.45C101.49,67.7,101.06,66.57,101.11,65.88ZM81.56,97.44v1.34c0,.46.28.64.71.61s.93.17,1-.35a8.32,8.32,0,0,0,0-2.86c0-.26-.33-.28-.58-.32C81.16,95.65,81.63,96.8,81.56,97.44Zm7,2c1.87,0,1.88,0,1.89-1,0-.8-.52-.9-1-.74-.86.25-2.21-.82-2.54.67S88,99.2,88.58,99.39Zm24.91-26.46c0-.5,0-.91,0-1.31s-.19-.63-.58-.61-1-.21-1.07.27a8.63,8.63,0,0,0,0,3c0,.29.33.3.57.33C114,74.8,113.35,73.57,113.49,72.93ZM74.43,81.67c.44,0,.88,0,1.31,0s.52-.43.5-.79.14-.9-.45-.94c-.88-.05-1.76,0-2.63,0-.29,0-.38.21-.44.47C72.48,81.45,72.77,81.68,74.43,81.67ZM78.07,79c.09-.75-.37-.84-1-.85s-.89.32-.89,1,.36.86,1,.87S78.14,79.61,78.07,79Zm17.7,26.65c.1-.71-.24-.92-.9-.93s-.92.26-.93.93.27.92.94.91S95.89,106.31,95.77,105.61Zm-19.54,5.24c-.07.6.09,1,.81,1,.55,0,1,0,1-.79S78,110,77.19,110C76.58,110,76.16,110.13,76.23,110.85Zm7.14-38.92c.07-.67-.2-1-.89-1s-.94.23-.94.91.21,1,.9.94S83.46,72.63,83.37,71.93Zm11.54,29.28c.63.08.88-.22.89-.89s-.27-1-1-1-.87.35-.87,1S94.2,101.29,94.91,101.21ZM75.49,67.48c.7.12.75-.36.77-1s-.35-.85-1-.86-.83.37-.85,1S74.81,67.54,75.49,67.48Zm9.64,6.21c.12-.69-.23-.91-.88-.92s-.93.26-.92.93.22.94.91.93S85.23,74.38,85.13,73.69Zm24.79,0c.1-.68-.22-.91-.88-.92s-.91.27-.9.94.24.92.92.92S110,74.35,109.92,73.69Zm-43.42,8c-.69-.12-.9.22-.91.87s.25.91.92.91.93-.22.92-.9S67.19,81.56,66.5,81.67Zm10.63,1.75c.65.08,1-.16,1-.86s-.25-.92-.93-.92-1,.2-1,.89S76.45,83.52,77.13,83.42ZM87.82,58.63c-.52-.08-1,0-1,.76,0,.59.06,1,.82,1,.55,0,1.06,0,1-.78C88.7,59,88.67,58.53,87.82,58.63Zm23,24.79c.62.07,1-.1,1-.83s-.19-1-.9-1-1,.14-1,.86S110.08,83.52,110.79,83.42ZM64.8,87c.75.12.83-.34.85-.94s-.4-.81-1-.82-.86.33-.86,1S64.19,87.05,64.8,87ZM93.08,56.85c-.69-.09-.91.24-.91.9s.27.9.93.91.9-.28.9-.92S93.76,56.76,93.08,56.85ZM75.27,99.38c-.71-.11-.81.33-.83,1s.31.89,1,.9.87-.35.87-1S76,99.28,75.27,99.38ZM94,103.82c.09-.61-.15-.91-.85-.89s-1,.16-1,.87.19,1,.89.94S94.07,104.58,94,103.82Zm-10.62-.08c.11-.67-.3-.79-.93-.81s-.88.29-.89.93.31.87.95.88S83.44,104.46,83.36,103.74Zm27.55-27.41c.69.14.84-.25.86-.89s-.35-.85-1-.86-.91.27-.91.92S110.22,76.43,110.91,76.33Zm-24,20.32c.17-.7-.29-.78-.9-.8s-.85.3-.86.94.29.87.93.88S87,97.35,86.86,96.65Zm2.65-38c.65.09,1-.14,1-.84s-.16-1-.86-1-1,.16-1,.87S88.76,58.75,89.51,58.63ZM70,81.67c-.69-.13-.82.28-.84.9s.31.86.93.88.88-.29.87-.93S70.68,81.56,70,81.67ZM85.12,102c.17-.74-.34-.76-.92-.79s-.87.31-.87.94.33.86,1,.86S85.22,102.67,85.12,102Z"/><path class="cls-4" d="M104.66,61.17c0-1.37,0-2.74,0-4.12s.62-1.94,1.94-1.95q4.23-.06,8.48,0c1.29,0,1.91.66,1.92,2,0,2.79,0,5.57,0,8.36,0,1.4-.62,2-2,2q-4.19,0-8.36,0c-1.4,0-2-.6-2-2S104.66,62.59,104.66,61.17Zm6.13,4.53c.89,0,1.77,0,2.66,0A1.64,1.64,0,0,0,115.23,64c0-1.81,0-3.63,0-5.44a1.6,1.6,0,0,0-1.7-1.67c-1.82,0-3.63,0-5.44,0a1.6,1.6,0,0,0-1.67,1.7c0,1.77,0,3.55,0,5.32a1.69,1.69,0,0,0,1.83,1.8C109.1,65.73,109.94,65.7,110.79,65.7Z"/><path class="cls-4" d="M70.89,61.32c0,1.41,0,2.83,0,4.24s-.59,1.86-1.86,1.88q-4.3,0-8.61,0a1.71,1.71,0,0,1-1.87-1.91c0-2.82,0-5.65,0-8.47a1.75,1.75,0,0,1,2-2q4.23-.06,8.48,0c1.31,0,1.88.64,1.9,2S70.89,59.9,70.89,61.32Zm-1.73,0c0-.85,0-1.69,0-2.54a1.69,1.69,0,0,0-1.75-1.88c-1.78,0-3.55,0-5.32,0a1.6,1.6,0,0,0-1.75,1.63c-.07,1.84-.07,3.7,0,5.55a1.59,1.59,0,0,0,1.73,1.64c1.78,0,3.55,0,5.32,0a1.69,1.69,0,0,0,1.77-1.86C69.19,63,69.16,62.13,69.16,61.29Z"/><path class="cls-4" d="M70.89,107.41c0,1.37,0,2.74,0,4.12s-.61,2-2,2c-2.79,0-5.57,0-8.36,0a1.78,1.78,0,0,1-2-2c0-2.79,0-5.57,0-8.36a1.72,1.72,0,0,1,1.94-2c2.83,0,5.65,0,8.48,0,1.33,0,1.9.6,1.92,1.94S70.89,106,70.89,107.41Zm-1.73,0c0-.85,0-1.69,0-2.54a1.74,1.74,0,0,0-1.87-1.9c-1.69,0-3.39,0-5.08,0a1.7,1.7,0,0,0-1.9,1.75c-.06,1.81-.05,3.63,0,5.44a1.57,1.57,0,0,0,1.61,1.64c1.85.06,3.71.07,5.56,0a1.65,1.65,0,0,0,1.67-1.84C69.17,109.09,69.16,108.25,69.16,107.4Z"/><path class="cls-4" d="M106.39,112.07c-.07.59.39,1.69-1.1,1.51-.31,0-.58-.11-.59-.44,0-.88,0-1.76,0-2.64,0-.58.55-.45.93-.47s.73.09.75.57S106.39,111.48,106.39,112.07Z"/><path class="cls-4" d="M62.07,71.89c.08.61-.16.89-.8.9s-1-.14-1-.87c0-.57.13-.92.81-.92S62.16,71.15,62.07,71.89Z"/><path class="cls-4" d="M85.1,66.54c.11.68-.17.91-.79.92s-1-.16-.94-.88.17-.89.82-.88S85.25,65.83,85.1,66.54Z"/><path class="cls-4" d="M81.54,66.61c.09.64-.22.84-.83.85s-.94-.2-.92-.9.24-.85.85-.86S81.63,65.92,81.54,66.61Z"/><path class="cls-4" d="M91.15,88.28l-4.39-4.62c-.3,1.15-.39,1.9.37,2.63,1.79,1.73,3.52,3.53,5.47,5.24.33-4.76.76-9.48-.67-14.18-.12,0,0,0,.09,0,4-.07,4-.07,4,3.91,0,3.27,0,6.54,0,9.81,0,1.11-.4,1.52-1.49,1.48a50.3,50.3,0,0,0-5.21,0c-2,.14-3.28-.6-3.59-2.93a40.79,40.79,0,0,1-.25-8.3l4.81,5c.39-1.41.23-2.22-.62-3-1.81-1.7-3.52-3.51-5.44-5.22.27,4.82-.88,9.68.8,14.43-.94,0-1.94,0-2.94,0a1.19,1.19,0,0,1-1.27-1.29q0-6.3,0-12.6a1.2,1.2,0,0,1,1.28-1.28c2.1,0,4.2,0,6.29,0A2.92,2.92,0,0,1,91.15,80,39.88,39.88,0,0,1,91.15,88.28Z"/><path class="cls-4" d="M69.14,87c.62.22,1.77-.59,1.75.9,0,.5-.06.88-.7.86s-1.09,0-1-.79c0-.32,0-.65,0-1Z"/><path class="cls-4" d="M99.35,82.55c-.1-.8.35-.88,1-.88s.77.34.8.91c0,.77-.41.82-1,.83S99.26,83.09,99.35,82.55Z"/><path class="cls-4" d="M105.47,101.23c.65-.08,1,.14.94.85s-.18.87-.83.88-.94-.2-.93-.89S104.81,101.13,105.47,101.23Z"/><path class="cls-4" d="M113.47,61.37c0,2.08-.5,2.56-2.67,2.56s-2.62-.49-2.62-2.74c0-2.1.5-2.56,2.8-2.55C113,58.64,113.47,59.15,113.47,61.37Z"/><path class="cls-4" d="M62.1,61.24c0-2.18.45-2.61,2.74-2.6,2.07,0,2.55.51,2.54,2.68s-.5,2.61-2.75,2.61C62.56,63.93,62.1,63.43,62.1,61.24Z"/><path class="cls-4" d="M62.1,107.32c0-2.12.48-2.6,2.63-2.6s2.66.49,2.65,2.72S66.9,110,64.61,110C62.52,110,62.1,109.56,62.1,107.32Z"/><path class="cls-2" d="M127.38,116.36a7.79,7.79,0,1,1-7.78-7.79,7.79,7.79,0,0,1,7.78,7.79"/><path class="cls-5" d="M120.16,114.67a2.26,2.26,0,1,1-2.25-2.26,2.25,2.25,0,0,1,2.25,2.26"/><rect class="cls-6" x="16.1" y="16.1" width="141.8" height="141.8" transform="translate(-19.75 25.83) rotate(-15.19)"/><text></text><text></text><rect class="cls-6" x="16.1" y="16.1" width="141.8" height="141.8" transform="translate(-19.75 25.83) rotate(-15.19)"/></g></g></svg>